<svg width="24" height="23" viewBox="0 0 24 23" fill="none" xmlns="http://www.w3.org/2000/svg">
<path fill-rule="evenodd" clip-rule="evenodd" d="M19.6154 2.26H4.38462C3.21632 2.26 2.26923 3.2002 2.26923 4.36V18.64C2.26923 19.7998 3.21632 20.74 4.38462 20.74H19.6154C20.7837 20.74 21.7308 19.7998 21.7308 18.64V4.36C21.7308 3.2002 20.7837 2.26 19.6154 2.26ZM4.38462 1C2.51534 1 1 2.50432 1 4.36V18.64C1 20.4957 2.51534 22 4.38462 22H19.6154C21.4847 22 23 20.4957 23 18.64V4.36C23 2.50432 21.4847 1 19.6154 1H4.38462Z" fill="url(#paint0_linear_15_783)"/>
<path fill-rule="evenodd" clip-rule="evenodd" d="M5.65385 9.4C5.65385 9.16804 5.84326 8.98 6.07692 8.98H12C12.2337 8.98 12.4231 9.16804 12.4231 9.4C12.4231 9.63196 12.2337 9.82 12 9.82H6.07692C5.84326 9.82 5.65385 9.63196 5.65385 9.4Z" fill="url(#paint1_linear_15_783)"/>
<path fill-rule="evenodd" clip-rule="evenodd" d="M11.5769 12.76C11.5769 12.528 11.7663 12.34 12 12.34H14.5385C14.7721 12.34 14.9615 12.528 14.9615 12.76C14.9615 12.992 14.7721 13.18 14.5385 13.18H12C11.7663 13.18 11.5769 12.992 11.5769 12.76Z" fill="url(#paint2_linear_15_783)"/>
<path fill-rule="evenodd" clip-rule="evenodd" d="M11.5769 15.28C11.5769 15.048 11.7663 14.86 12 14.86H18.7692C19.0029 14.86 19.1923 15.048 19.1923 15.28C19.1923 15.512 19.0029 15.7 18.7692 15.7H12C11.7663 15.7 11.5769 15.512 11.5769 15.28Z" fill="url(#paint3_linear_15_783)"/>
<path fill-rule="evenodd" clip-rule="evenodd" d="M8.19231 6.73655C8.19231 6.89563 8.10177 7.04106 7.95844 7.11221L5.41998 8.37221C5.21098 8.47594 4.95685 8.39185 4.85236 8.18438C4.74786 7.97691 4.83257 7.72462 5.04156 7.62089L6.8232 6.73655L5.04156 5.85221C4.83257 5.74847 4.74786 5.49619 4.85236 5.28872C4.95685 5.08125 5.21098 4.99715 5.41998 5.10089L7.95844 6.36089C8.10177 6.43203 8.19231 6.57746 8.19231 6.73655Z" fill="url(#paint4_linear_15_783)"/>
<path fill-rule="evenodd" clip-rule="evenodd" d="M19.6154 2.26H4.38462C3.21632 2.26 2.26923 3.2002 2.26923 4.36V18.64C2.26923 19.7998 3.21632 20.74 4.38462 20.74H19.6154C20.7837 20.74 21.7308 19.7998 21.7308 18.64V4.36C21.7308 3.2002 20.7837 2.26 19.6154 2.26ZM4.38462 1C2.51534 1 1 2.50432 1 4.36V18.64C1 20.4957 2.51534 22 4.38462 22H19.6154C21.4847 22 23 20.4957 23 18.64V4.36C23 2.50432 21.4847 1 19.6154 1H4.38462Z" stroke="url(#paint5_linear_15_783)" stroke-width="0.3"/>
<path fill-rule="evenodd" clip-rule="evenodd" d="M5.65385 9.4C5.65385 9.16804 5.84326 8.98 6.07692 8.98H12C12.2337 8.98 12.4231 9.16804 12.4231 9.4C12.4231 9.63196 12.2337 9.82 12 9.82H6.07692C5.84326 9.82 5.65385 9.63196 5.65385 9.4Z" stroke="url(#paint6_linear_15_783)" stroke-width="0.3"/>
<path fill-rule="evenodd" clip-rule="evenodd" d="M11.5769 12.76C11.5769 12.528 11.7663 12.34 12 12.34H14.5385C14.7721 12.34 14.9615 12.528 14.9615 12.76C14.9615 12.992 14.7721 13.18 14.5385 13.18H12C11.7663 13.18 11.5769 12.992 11.5769 12.76Z" stroke="url(#paint7_linear_15_783)" stroke-width="0.3"/>
<path fill-rule="evenodd" clip-rule="evenodd" d="M11.5769 15.28C11.5769 15.048 11.7663 14.86 12 14.86H18.7692C19.0029 14.86 19.1923 15.048 19.1923 15.28C19.1923 15.512 19.0029 15.7 18.7692 15.7H12C11.7663 15.7 11.5769 15.512 11.5769 15.28Z" stroke="url(#paint8_linear_15_783)" stroke-width="0.3"/>
<path fill-rule="evenodd" clip-rule="evenodd" d="M8.19231 6.73655C8.19231 6.89563 8.10177 7.04106 7.95844 7.11221L5.41998 8.37221C5.21098 8.47594 4.95685 8.39185 4.85236 8.18438C4.74786 7.97691 4.83257 7.72462 5.04156 7.62089L6.8232 6.73655L5.04156 5.85221C4.83257 5.74847 4.74786 5.49619 4.85236 5.28872C4.95685 5.08125 5.21098 4.99715 5.41998 5.10089L7.95844 6.36089C8.10177 6.43203 8.19231 6.57746 8.19231 6.73655Z" stroke="url(#paint9_linear_15_783)" stroke-width="0.3"/>
<defs>
<linearGradient id="paint0_linear_15_783" x1="12" y1="1" x2="12" y2="22" gradientUnits="userSpaceOnUse">
<stop stop-color="#1BADFF"/>
<stop offset="0.495" stop-color="#4E8AF6"/>
<stop offset="1" stop-color="#8166EC"/>
</linearGradient>
<linearGradient id="paint1_linear_15_783" x1="12" y1="1" x2="12" y2="22" gradientUnits="userSpaceOnUse">
<stop stop-color="#1BADFF"/>
<stop offset="0.495" stop-color="#4E8AF6"/>
<stop offset="1" stop-color="#8166EC"/>
</linearGradient>
<linearGradient id="paint2_linear_15_783" x1="12" y1="1" x2="12" y2="22" gradientUnits="userSpaceOnUse">
<stop stop-color="#1BADFF"/>
<stop offset="0.495" stop-color="#4E8AF6"/>
<stop offset="1" stop-color="#8166EC"/>
</linearGradient>
<linearGradient id="paint3_linear_15_783" x1="12" y1="1" x2="12" y2="22" gradientUnits="userSpaceOnUse">
<stop stop-color="#1BADFF"/>
<stop offset="0.495" stop-color="#4E8AF6"/>
<stop offset="1" stop-color="#8166EC"/>
</linearGradient>
<linearGradient id="paint4_linear_15_783" x1="12" y1="1" x2="12" y2="22" gradientUnits="userSpaceOnUse">
<stop stop-color="#1BADFF"/>
<stop offset="0.495" stop-color="#4E8AF6"/>
<stop offset="1" stop-color="#8166EC"/>
</linearGradient>
<linearGradient id="paint5_linear_15_783" x1="12" y1="1" x2="12" y2="22" gradientUnits="userSpaceOnUse">
<stop stop-color="#1BADFF"/>
<stop offset="0.495" stop-color="#4E8AF6"/>
<stop offset="1" stop-color="#8166EC"/>
</linearGradient>
<linearGradient id="paint6_linear_15_783" x1="12" y1="1" x2="12" y2="22" gradientUnits="userSpaceOnUse">
<stop stop-color="#1BADFF"/>
<stop offset="0.495" stop-color="#4E8AF6"/>
<stop offset="1" stop-color="#8166EC"/>
</linearGradient>
<linearGradient id="paint7_linear_15_783" x1="12" y1="1" x2="12" y2="22" gradientUnits="userSpaceOnUse">
<stop stop-color="#1BADFF"/>
<stop offset="0.495" stop-color="#4E8AF6"/>
<stop offset="1" stop-color="#8166EC"/>
</linearGradient>
<linearGradient id="paint8_linear_15_783" x1="12" y1="1" x2="12" y2="22" gradientUnits="userSpaceOnUse">
<stop stop-color="#1BADFF"/>
<stop offset="0.495" stop-color="#4E8AF6"/>
<stop offset="1" stop-color="#8166EC"/>
</linearGradient>
<linearGradient id="paint9_linear_15_783" x1="12" y1="1" x2="12" y2="22" gradientUnits="userSpaceOnUse">
<stop stop-color="#1BADFF"/>
<stop offset="0.495" stop-color="#4E8AF6"/>
<stop offset="1" stop-color="#8166EC"/>
</linearGradient>
</defs>
</svg>
