<svg width="23" height="19" viewBox="0 0 23 19" fill="none" xmlns="http://www.w3.org/2000/svg">
<path d="M21.1136 1.08448C22.2727 1.15338 22.9252 2.44029 22.2882 3.40092L12.5961 18.0169L20.3223 4.32203C20.8424 3.40016 20.258 2.24642 19.2004 2.10711L3.47894 0.0362745L21.1136 1.08448Z" fill="url(#paint0_linear_13_563)"/>
<path d="M14.6256 3.37252C16.0958 3.45991 16.8309 3.5036 17.1669 3.92002C17.2727 4.05109 17.3495 4.20267 17.3925 4.36492C17.529 4.88039 17.125 5.48966 16.317 6.70819L12.4565 12.5299C12.4484 12.5646 12.4338 12.5987 12.412 12.6305L11.6996 13.6709C11.3605 14.1807 11.0677 14.615 10.8076 14.9735L8.50945 18.3297C8.34112 18.5755 7.95279 18.4525 7.9582 18.155L8.04951 13.1299C8.0339 12.826 8.01895 12.4969 8.0028 12.1415L7.88319 9.5088C7.86346 9.07454 7.8536 8.85741 7.773 8.66366C7.74639 8.59969 7.71424 8.53811 7.67692 8.47961C7.56388 8.30246 7.39064 8.16886 7.04416 7.90166L5.57417 6.768C5.46366 6.68277 5.35621 6.59991 5.25184 6.5193L0.37505 3.21892C0.124526 3.04938 0.253337 2.66106 0.556059 2.67324L4.18592 2.81929C4.8605 2.79208 5.79315 2.84751 7.02971 2.92102L14.6256 3.37252Z" fill="url(#paint1_linear_13_563)"/>
<defs>
<linearGradient id="paint0_linear_13_563" x1="16.2203" y1="3.59559" x2="-0.327264" y2="14.8072" gradientUnits="userSpaceOnUse">
<stop stop-color="#8166EC"/>
<stop offset="1" stop-color="#1BADFF"/>
</linearGradient>
<linearGradient id="paint1_linear_13_563" x1="16.2203" y1="3.59559" x2="-0.327264" y2="14.8072" gradientUnits="userSpaceOnUse">
<stop stop-color="#8166EC"/>
<stop offset="1" stop-color="#1BADFF"/>
</linearGradient>
</defs>
</svg>
