<svg width="23" height="23" viewBox="0 0 23 23" fill="none" xmlns="http://www.w3.org/2000/svg">
<path fill-rule="evenodd" clip-rule="evenodd" d="M18.7653 2.265H3.53452C2.36622 2.265 1.41913 3.20893 1.41913 4.37333V18.71C1.41913 19.8744 2.36622 20.8183 3.53452 20.8183H18.7653C19.9336 20.8183 20.8807 19.8744 20.8807 18.71V4.37333C20.8807 3.20893 19.9336 2.265 18.7653 2.265ZM3.53452 1C1.66525 1 0.149902 2.51029 0.149902 4.37333V18.71C0.149902 20.573 1.66525 22.0833 3.53452 22.0833H18.7653C20.6346 22.0833 22.1499 20.573 22.1499 18.71V4.37333C22.1499 2.51029 20.6346 1 18.7653 1H3.53452Z" fill="url(#paint0_linear_13_573)"/>
<path fill-rule="evenodd" clip-rule="evenodd" d="M3.53462 1.14998C1.74771 1.14998 0.3 2.59358 0.3 4.37331V18.71C0.3 20.4897 1.74771 21.9333 3.53462 21.9333H18.7654C20.5523 21.9333 22 20.4897 22 18.71V4.37331C22 2.59358 20.5523 1.14998 18.7654 1.14998H3.53462ZM0 4.37331C0 2.42695 1.58297 0.849976 3.53462 0.849976H18.7654C20.717 0.849976 22.3 2.42695 22.3 4.37331V18.71C22.3 20.6563 20.717 22.2333 18.7654 22.2333H3.53462C1.58297 22.2333 0 20.6563 0 18.71V4.37331ZM3.53462 2.41498C2.44869 2.41498 1.56923 3.29222 1.56923 4.37331V18.71C1.56923 19.7911 2.44869 20.6683 3.53462 20.6683H18.7654C19.8513 20.6683 20.7308 19.7911 20.7308 18.71V4.37331C20.7308 3.29222 19.8513 2.41498 18.7654 2.41498H3.53462ZM1.26923 4.37331C1.26923 3.12559 2.28395 2.11498 3.53462 2.11498H18.7654C20.016 2.11498 21.0308 3.12559 21.0308 4.37331V18.71C21.0308 19.9577 20.016 20.9683 18.7654 20.9683H3.53462C2.28395 20.9683 1.26923 19.9577 1.26923 18.71V4.37331Z" fill="url(#paint1_linear_13_573)"/>
<path fill-rule="evenodd" clip-rule="evenodd" d="M3.88159 19.537C3.88159 17.3228 5.67659 15.5277 7.89085 15.5277H14.4094C16.6236 15.5277 18.4186 17.3227 18.4186 19.537V21.1666C18.4186 21.5808 18.0828 21.9166 17.6686 21.9166H4.63159C4.21738 21.9166 3.88159 21.5808 3.88159 21.1666V19.537ZM7.89085 17.0277C6.50503 17.0277 5.38159 18.1512 5.38159 19.537C5.38159 20.0228 5.77541 20.4166 6.26122 20.4166H16.039C16.5248 20.4166 16.9186 20.0228 16.9186 19.537C16.9186 18.1512 15.7952 17.0277 14.4094 17.0277H7.89085Z" fill="url(#paint2_linear_13_573)"/>
<path fill-rule="evenodd" clip-rule="evenodd" d="M7.14087 9.75926C7.14087 7.54501 8.93587 5.75 11.1501 5.75C13.3643 5.75 15.1594 7.545 15.1594 9.75926C15.1594 11.9735 13.3643 13.7685 11.1501 13.7685C8.93587 13.7685 7.14087 11.9735 7.14087 9.75926ZM11.1501 7.25C9.7643 7.25 8.64087 8.37343 8.64087 9.75926C8.64087 11.1451 9.7643 12.2685 11.1501 12.2685C12.5359 12.2685 13.6594 11.1451 13.6594 9.75926C13.6594 8.37344 12.5359 7.25 11.1501 7.25Z" fill="url(#paint3_linear_13_573)"/>
<defs>
<linearGradient id="paint0_linear_13_573" x1="11.1499" y1="1" x2="11.1499" y2="22.0833" gradientUnits="userSpaceOnUse">
<stop stop-color="#1BADFF"/>
<stop offset="0.495" stop-color="#4E8AF6"/>
<stop offset="1" stop-color="#8166EC"/>
</linearGradient>
<linearGradient id="paint1_linear_13_573" x1="11.15" y1="0.849976" x2="11.15" y2="22.2333" gradientUnits="userSpaceOnUse">
<stop stop-color="#1BADFF"/>
<stop offset="0.495" stop-color="#4E8AF6"/>
<stop offset="1" stop-color="#8166EC"/>
</linearGradient>
<linearGradient id="paint2_linear_13_573" x1="11.1501" y1="15.5277" x2="11.1501" y2="21.9166" gradientUnits="userSpaceOnUse">
<stop stop-color="#1BADFF"/>
<stop offset="0.495" stop-color="#4E8AF6"/>
<stop offset="1" stop-color="#8166EC"/>
</linearGradient>
<linearGradient id="paint3_linear_13_573" x1="11.1501" y1="5.75" x2="11.1501" y2="13.7685" gradientUnits="userSpaceOnUse">
<stop stop-color="#1BADFF"/>
<stop offset="0.495" stop-color="#4E8AF6"/>
<stop offset="1" stop-color="#8166EC"/>
</linearGradient>
</defs>
</svg>
