<svg width="173" height="158" viewBox="0 0 173 158" fill="none" xmlns="http://www.w3.org/2000/svg">
<g filter="url(#filter0_dddd_193_75)">
<path d="M140.571 15.3799C146.35 15.7234 149.604 22.1402 146.428 26.9302L98.1009 99.8087L136.626 31.523C139.219 26.9263 136.305 21.1736 131.031 20.4789L52.6408 10.1533L140.571 15.3799Z" fill="url(#paint0_linear_193_75)"/>
<path d="M108.22 26.7885C115.551 27.2243 119.217 27.4421 120.892 29.5185C121.419 30.172 121.803 30.9278 122.017 31.7368C122.697 34.3071 120.683 37.345 116.654 43.4209L97.4049 72.4492C97.3646 72.6225 97.2916 72.7924 97.183 72.951L93.6309 78.1384C91.9401 80.6804 90.4802 82.8458 89.1833 84.6334L77.724 101.368C76.8847 102.594 74.9484 101.98 74.9753 100.497L75.4307 75.4411C75.3528 73.9255 75.2783 72.2845 75.1978 70.5128L74.6013 57.3854C74.503 55.22 74.4538 54.1374 74.0519 53.1713C73.9192 52.8523 73.7589 52.5453 73.5728 52.2536C73.0092 51.3703 72.1454 50.7041 70.4178 49.3718L63.0881 43.7191C62.537 43.2942 62.0013 42.881 61.4809 42.479L37.1641 26.0227C35.915 25.1773 36.5572 23.2411 38.0667 23.3018L56.166 24.03C59.5295 23.8943 64.1799 24.1707 70.3457 24.5372L108.22 26.7885Z" fill="url(#paint1_linear_193_75)"/>
</g>
<path d="M162.135 136.143L163.231 146.889L169.006 136.143H172.881L164.072 151.86C163.195 153.395 162.305 154.576 161.404 155.405C160.502 156.233 159.515 156.843 158.443 157.232C157.396 157.622 156.226 157.842 154.934 157.89C153.667 157.963 152.218 158 150.585 158L151.133 155.478C151.937 155.478 152.681 155.466 153.363 155.441C154.069 155.417 154.63 155.344 155.044 155.222C155.605 155.076 156.007 154.808 156.25 154.418C156.494 154.053 156.616 153.504 156.616 152.773C156.616 152.286 156.567 151.726 156.47 151.092C156.396 150.458 156.311 149.788 156.214 149.082L154.423 136.143H162.135Z" fill="white"/>
<path d="M140.108 142.795L148.625 136.143H153.449L146.176 142.101L151.622 151.86H143.434L139.706 144.513L138.171 151.86H130.715L135.905 127.298H143.398L140.108 142.795Z" fill="white"/>
<path d="M116.373 136.143H122.331L122.879 138.884H123.135C123.695 138.007 124.414 137.264 125.291 136.654C126.169 136.045 127.326 135.741 128.764 135.741C128.861 135.741 129.007 135.753 129.202 135.777C129.422 135.777 129.653 135.814 129.897 135.887C130.165 135.936 130.433 136.021 130.701 136.143C130.993 136.24 131.273 136.386 131.541 136.581L129.933 144.111H125.949C125.9 142.6 125.766 141.552 125.547 140.967C125.328 140.358 124.975 140.054 124.487 140.054C124.244 140.054 123.975 140.115 123.683 140.236C123.415 140.334 123.135 140.565 122.842 140.931L120.503 151.86H113.047L116.373 136.143Z" fill="white"/>
<path d="M95.8763 137.495C97.119 136.886 98.3861 136.447 99.6776 136.179C100.993 135.887 102.455 135.741 104.064 135.741C105.623 135.741 106.915 135.863 107.938 136.106C108.961 136.35 109.778 136.703 110.387 137.166C110.996 137.629 111.422 138.177 111.666 138.811C111.91 139.445 112.032 140.163 112.032 140.967C112.032 141.43 111.995 141.93 111.922 142.466C111.873 143.002 111.812 143.453 111.739 143.818L110.021 151.86H104.137L103.479 149.52H103.26C102.48 150.373 101.566 151.031 100.518 151.494C99.4948 151.933 98.4714 152.152 97.448 152.152C96.8632 152.152 96.2906 152.067 95.7301 151.896C95.1697 151.725 94.6702 151.47 94.2316 151.128C93.7929 150.763 93.4396 150.312 93.1716 149.776C92.9035 149.216 92.7695 148.546 92.7695 147.766C92.7695 146.499 93.1107 145.5 93.7929 144.769C94.4996 144.013 95.4134 143.453 96.5342 143.087C97.6795 142.698 98.9588 142.454 100.372 142.356C101.81 142.259 103.247 142.21 104.685 142.21C104.734 141.966 104.795 141.625 104.868 141.187C104.941 140.724 104.977 140.322 104.977 139.981C104.977 139.542 104.856 139.14 104.612 138.774C104.393 138.385 103.917 138.19 103.186 138.19C102.334 138.19 101.7 138.445 101.286 138.957C100.896 139.445 100.64 140.042 100.518 140.748H95.1819L95.8763 137.495ZM104.283 143.928H103.625C102.918 143.928 102.309 144.026 101.798 144.22C101.31 144.391 100.908 144.623 100.591 144.915C100.299 145.207 100.08 145.536 99.9334 145.902C99.7872 146.267 99.7141 146.633 99.7141 146.998C99.7141 147.583 99.8603 148.022 100.153 148.314C100.47 148.607 100.835 148.753 101.249 148.753C101.761 148.753 102.26 148.57 102.748 148.204C103.26 147.839 103.576 147.352 103.698 146.742L104.283 143.928Z" fill="white"/>
<path d="M77.4202 151.86H71.499L76.6892 127.298H84.1821L81.8063 138.482H82.0621C82.8662 137.556 83.7678 136.898 84.7669 136.508C85.7903 136.094 86.8015 135.887 87.8006 135.887C88.6534 135.887 89.36 136.021 89.9205 136.289C90.5053 136.533 90.9683 136.874 91.3094 137.312C91.6505 137.751 91.8942 138.275 92.0404 138.884C92.1866 139.493 92.2597 140.139 92.2597 140.821C92.2597 141.162 92.2354 141.674 92.1866 142.356C92.1379 143.039 92.0282 143.806 91.8577 144.659C91.6871 145.488 91.4434 146.353 91.1267 147.254C90.8099 148.131 90.3835 148.936 89.8474 149.667C89.3357 150.398 88.6778 150.995 87.8737 151.458C87.0939 151.92 86.1558 152.152 85.0593 152.152C84.4014 152.152 83.7556 152.079 83.1221 151.933C82.5129 151.786 81.9525 151.592 81.4408 151.348C80.9534 151.104 80.5148 150.824 80.1249 150.507C79.7594 150.166 79.4914 149.825 79.3208 149.484H79.065L77.4202 151.86ZM81.5504 148.607C82.1352 148.607 82.6226 148.302 83.0124 147.693C83.4023 147.059 83.7191 146.328 83.9628 145.5C84.2064 144.647 84.377 143.806 84.4745 142.978C84.5963 142.125 84.6572 141.491 84.6572 141.077C84.6572 140.59 84.5719 140.188 84.4014 139.871C84.2552 139.554 83.9749 139.396 83.5607 139.396C83.0734 139.396 82.6226 139.579 82.2083 139.944C81.7941 140.285 81.4895 140.578 81.2946 140.821L79.8691 147.364C80.0397 147.656 80.259 147.936 80.527 148.205C80.8194 148.473 81.1605 148.607 81.5504 148.607Z" fill="white"/>
<path d="M50.1777 138.482C50.6894 137.995 51.262 137.544 51.8955 137.13C52.456 136.789 53.1261 136.472 53.9058 136.179C54.6855 135.887 55.5628 135.741 56.5374 135.741C57.7071 135.741 58.5721 136.009 59.1325 136.545C59.7173 137.081 60.0463 137.739 60.1194 138.519H60.3387C60.8991 138.007 61.5083 137.544 62.1662 137.13C62.7267 136.789 63.3846 136.472 64.1399 136.179C64.8953 135.887 65.6994 135.741 66.5523 135.741C67.8194 135.741 68.8428 136.094 69.6225 136.801C70.4266 137.483 70.8287 138.372 70.8287 139.469C70.8287 140.029 70.7312 140.773 70.5363 141.698C70.3414 142.624 70.1221 143.636 69.8784 144.732L68.3433 151.86H61.1428L63.1165 142.32C63.1896 141.954 63.2627 141.601 63.3358 141.26C63.4089 140.919 63.4455 140.638 63.4455 140.419C63.4455 140.078 63.348 139.798 63.1531 139.579C62.9582 139.335 62.6779 139.213 62.3124 139.213C61.8495 139.213 61.4108 139.384 60.9966 139.725C60.6067 140.042 60.3021 140.31 60.0828 140.529L57.7071 151.86H50.8721L52.8824 142.32C52.9311 142.003 52.992 141.686 53.0651 141.37C53.1382 141.028 53.1748 140.724 53.1748 140.456C53.1748 140.09 53.0773 139.798 52.8824 139.579C52.7118 139.335 52.4438 139.213 52.0783 139.213C51.6397 139.213 51.2132 139.371 50.799 139.688C50.4091 140.005 50.1045 140.273 49.8852 140.492L47.4729 151.86H40.0166L43.3427 136.143H49.3004L49.9583 138.482H50.1777Z" fill="white"/>
<path d="M26.9343 128.65H42.3221L41.7373 131.428H34.281L32.7459 138.482H38.996L38.4112 141.223H32.161L30.4797 149.045H37.936L37.3878 151.859H22L26.9343 128.65Z" fill="white"/>
<defs>
<filter id="filter0_dddd_193_75" x="0.50293" y="6.15332" width="151.168" height="131.869" filterUnits="userSpaceOnUse" color-interpolation-filters="sRGB">
<feFlood flood-opacity="0" result="BackgroundImageFix"/>
<feColorMatrix in="SourceAlpha" type="matrix" values="0 0 0 0 0 0 0 0 0 0 0 0 0 0 0 0 0 0 127 0" result="hardAlpha"/>
<feOffset dx="-1" dy="1"/>
<feGaussianBlur stdDeviation="2.5"/>
<feColorMatrix type="matrix" values="0 0 0 0 0 0 0 0 0 0 0 0 0 0 0 0 0 0 0.1 0"/>
<feBlend mode="normal" in2="BackgroundImageFix" result="effect1_dropShadow_193_75"/>
<feColorMatrix in="SourceAlpha" type="matrix" values="0 0 0 0 0 0 0 0 0 0 0 0 0 0 0 0 0 0 127 0" result="hardAlpha"/>
<feOffset dx="-6" dy="6"/>
<feGaussianBlur stdDeviation="4"/>
<feColorMatrix type="matrix" values="0 0 0 0 0 0 0 0 0 0 0 0 0 0 0 0 0 0 0.09 0"/>
<feBlend mode="normal" in2="effect1_dropShadow_193_75" result="effect2_dropShadow_193_75"/>
<feColorMatrix in="SourceAlpha" type="matrix" values="0 0 0 0 0 0 0 0 0 0 0 0 0 0 0 0 0 0 127 0" result="hardAlpha"/>
<feOffset dx="-13" dy="13"/>
<feGaussianBlur stdDeviation="5.5"/>
<feColorMatrix type="matrix" values="0 0 0 0 0 0 0 0 0 0 0 0 0 0 0 0 0 0 0.05 0"/>
<feBlend mode="normal" in2="effect2_dropShadow_193_75" result="effect3_dropShadow_193_75"/>
<feColorMatrix in="SourceAlpha" type="matrix" values="0 0 0 0 0 0 0 0 0 0 0 0 0 0 0 0 0 0 127 0" result="hardAlpha"/>
<feOffset dx="-23" dy="23"/>
<feGaussianBlur stdDeviation="6.5"/>
<feColorMatrix type="matrix" values="0 0 0 0 0 0 0 0 0 0 0 0 0 0 0 0 0 0 0.01 0"/>
<feBlend mode="normal" in2="effect3_dropShadow_193_75" result="effect4_dropShadow_193_75"/>
<feBlend mode="normal" in="SourceGraphic" in2="effect4_dropShadow_193_75" result="shape"/>
</filter>
<linearGradient id="paint0_linear_193_75" x1="116.172" y1="27.9008" x2="33.6623" y2="83.8044" gradientUnits="userSpaceOnUse">
<stop stop-color="#8166EC"/>
<stop offset="1" stop-color="#1BADFF"/>
</linearGradient>
<linearGradient id="paint1_linear_193_75" x1="116.172" y1="27.9008" x2="33.6623" y2="83.8044" gradientUnits="userSpaceOnUse">
<stop stop-color="#8166EC"/>
<stop offset="1" stop-color="#1BADFF"/>
</linearGradient>
</defs>
</svg>
