<svg width="166" height="34" viewBox="0 0 166 34" fill="none" xmlns="http://www.w3.org/2000/svg">
<path d="M35.3389 4.6953C37.1069 4.80017 38.1023 6.75915 37.1306 8.22146L22.3462 30.4704L34.1318 9.6236C34.9252 8.22029 34.0337 6.46404 32.4204 6.25198L8.43886 3.09968L35.3389 4.6953Z" fill="url(#paint0_linear_13_316)"/>
<path d="M25.442 8.17822C27.6847 8.31124 28.806 8.37776 29.3185 9.01164C29.4799 9.21117 29.5971 9.4419 29.6627 9.68888C29.8709 10.4736 29.2546 11.401 28.022 13.2559L22.1333 22.1179C22.1209 22.1708 22.0986 22.2227 22.0654 22.2711L20.9787 23.8547C20.4615 24.6308 20.0148 25.2918 19.6181 25.8376L16.1124 30.9465C15.8556 31.3207 15.2633 31.1334 15.2715 30.6807L15.4108 23.0313C15.387 22.5686 15.3642 22.0676 15.3396 21.5267L15.1571 17.5191C15.127 16.858 15.112 16.5275 14.989 16.2326C14.9484 16.1352 14.8994 16.0414 14.8425 15.9524C14.67 15.6827 14.4058 15.4794 13.8773 15.0726L11.6349 13.3469C11.4664 13.2172 11.3024 13.0911 11.1432 12.9683L3.70417 7.94441C3.32202 7.68633 3.51851 7.09522 3.98028 7.11376L9.51729 7.33608C10.5463 7.29465 11.969 7.37904 13.8552 7.49093L25.442 8.17822Z" fill="url(#paint1_linear_13_316)"/>
<path d="M157.008 11.6837L157.884 20.2453L162.494 11.6837H165.588L158.555 24.2057C157.855 25.4288 157.144 26.3704 156.425 27.0305C155.705 27.6905 154.917 28.1759 154.061 28.4865C153.224 28.7971 152.291 28.9719 151.259 29.0107C150.248 29.0689 149.09 29.0981 147.787 29.0981L148.225 27.0887C148.867 27.0887 149.46 27.079 150.005 27.0596C150.569 27.0402 151.016 26.9819 151.347 26.8849C151.794 26.7684 152.115 26.5548 152.31 26.2442C152.505 25.953 152.602 25.5162 152.602 24.9338C152.602 24.5455 152.563 24.099 152.485 23.5942C152.427 23.0894 152.359 22.5555 152.281 21.9925L150.851 11.6837H157.008Z" fill="white"/>
<path d="M139.423 16.9838L146.222 11.6837H150.074L144.267 16.4305L148.615 24.2058H142.078L139.102 18.3524L137.876 24.2058H131.923L136.067 4.63647H142.049L139.423 16.9838Z" fill="white"/>
<path d="M120.472 11.6837H125.229L125.667 13.8678H125.871C126.318 13.1689 126.892 12.5768 127.592 12.0914C128.293 11.6061 129.217 11.3634 130.365 11.3634C130.443 11.3634 130.559 11.3731 130.715 11.3925C130.89 11.3925 131.075 11.4216 131.269 11.4799C131.483 11.5187 131.697 11.5867 131.911 11.6837C132.145 11.7614 132.369 11.8779 132.583 12.0332L131.299 18.0321H128.118C128.079 16.8284 127.972 15.9936 127.797 15.5277C127.622 15.0424 127.34 14.7997 126.951 14.7997C126.756 14.7997 126.542 14.8482 126.309 14.9453C126.095 15.0229 125.871 15.2074 125.637 15.4986L123.77 24.2057H117.817L120.472 11.6837Z" fill="white"/>
<path d="M104.108 12.7612C105.1 12.2759 106.112 11.9264 107.143 11.7129C108.194 11.4799 109.361 11.3634 110.645 11.3634C111.89 11.3634 112.921 11.4605 113.738 11.6546C114.555 11.8488 115.207 12.1303 115.693 12.4991C116.18 12.868 116.52 13.3048 116.715 13.8096C116.909 14.3143 117.006 14.887 117.006 15.5277C117.006 15.8966 116.977 16.2946 116.919 16.7217C116.88 17.1488 116.831 17.5079 116.773 17.7991L115.401 24.2057H110.703L110.178 22.342H110.003C109.38 23.0215 108.651 23.5457 107.814 23.9145C106.997 24.264 106.18 24.4387 105.363 24.4387C104.896 24.4387 104.439 24.3708 103.991 24.2349C103.544 24.099 103.145 23.8951 102.795 23.6233C102.445 23.3321 102.163 22.973 101.949 22.5459C101.735 22.0993 101.628 21.5654 101.628 20.9442C101.628 19.9347 101.9 19.1387 102.445 18.5563C103.009 17.9544 103.738 17.5079 104.633 17.2167C105.548 16.9061 106.569 16.712 107.697 16.6343C108.845 16.5566 109.993 16.5178 111.141 16.5178C111.18 16.3237 111.228 16.0519 111.287 15.7024C111.345 15.3336 111.374 15.0132 111.374 14.7414C111.374 14.392 111.277 14.0717 111.083 13.7804C110.907 13.4698 110.528 13.3145 109.944 13.3145C109.264 13.3145 108.758 13.5184 108.427 13.926C108.116 14.3143 107.911 14.79 107.814 15.353H103.554L104.108 12.7612ZM110.82 17.8865H110.295C109.73 17.8865 109.244 17.9642 108.836 18.1195C108.446 18.2554 108.125 18.4398 107.873 18.6728C107.639 18.9057 107.464 19.1678 107.347 19.459C107.231 19.7502 107.172 20.0415 107.172 20.3327C107.172 20.7986 107.289 21.148 107.522 21.381C107.775 21.614 108.067 21.7305 108.398 21.7305C108.806 21.7305 109.205 21.5849 109.594 21.2937C110.003 21.0024 110.256 20.6142 110.353 20.1288L110.82 17.8865Z" fill="white"/>
<path d="M89.3724 24.2058H84.645L88.7888 4.63647H94.771L92.8742 13.5475H93.0785C93.7205 12.8098 94.4403 12.2856 95.238 11.975C96.055 11.6449 96.8624 11.4799 97.66 11.4799C98.3409 11.4799 98.9051 11.5867 99.3526 11.8002C99.8195 11.9944 100.189 12.2662 100.461 12.6156C100.734 12.9651 100.928 13.3825 101.045 13.8678C101.162 14.3532 101.22 14.8676 101.22 15.4112C101.22 15.683 101.201 16.0907 101.162 16.6343C101.123 17.1779 101.035 17.7894 100.899 18.4689C100.763 19.129 100.568 19.8182 100.316 20.5365C100.063 21.2354 99.7222 21.8761 99.2942 22.4585C98.8857 23.0409 98.3604 23.5166 97.7184 23.8854C97.0959 24.2543 96.3469 24.4387 95.4714 24.4387C94.9461 24.4387 94.4306 24.3805 93.9248 24.264C93.4384 24.1475 92.991 23.9922 92.5824 23.7981C92.1933 23.6039 91.8432 23.3807 91.5319 23.1283C91.2401 22.8565 91.0261 22.5847 90.8899 22.3129H90.6856L89.3724 24.2058ZM92.67 21.614C93.1369 21.614 93.526 21.3713 93.8372 20.886C94.1485 20.3812 94.4014 19.7988 94.596 19.1387C94.7905 18.4592 94.9267 17.7894 95.0045 17.1294C95.1018 16.4499 95.1504 15.9451 95.1504 15.6151C95.1504 15.2268 95.0823 14.9065 94.9461 14.6541C94.8294 14.4017 94.6057 14.2755 94.275 14.2755C93.8859 14.2755 93.526 14.4211 93.1952 14.7123C92.8645 14.9841 92.6213 15.2171 92.4657 15.4112L91.3276 20.6239C91.4638 20.8568 91.6389 21.0801 91.8529 21.2937C92.0863 21.5072 92.3587 21.614 92.67 21.614Z" fill="white"/>
<path d="M67.6227 13.5475C68.0313 13.1592 68.4885 12.8 68.9943 12.47C69.4417 12.1982 69.9767 11.9458 70.5993 11.7129C71.2218 11.4799 71.9222 11.3634 72.7004 11.3634C73.6342 11.3634 74.3248 11.577 74.7722 12.0041C75.2392 12.4312 75.5018 12.9553 75.5602 13.5766H75.7352C76.1827 13.1689 76.6691 12.8 77.1943 12.47C77.6418 12.1982 78.167 11.9458 78.7701 11.7129C79.3732 11.4799 80.0152 11.3634 80.6961 11.3634C81.7077 11.3634 82.5248 11.6449 83.1474 12.2079C83.7894 12.7515 84.1104 13.4601 84.1104 14.3337C84.1104 14.7803 84.0326 15.3724 83.8769 16.1101C83.7213 16.8479 83.5462 17.6535 83.3516 18.5272L82.126 24.2057H76.3772L77.953 16.6052C78.0114 16.314 78.0698 16.0325 78.1281 15.7607C78.1865 15.4889 78.2157 15.2656 78.2157 15.0909C78.2157 14.8191 78.1379 14.5958 77.9822 14.4211C77.8266 14.227 77.6029 14.1299 77.311 14.1299C76.9414 14.1299 76.5912 14.2658 76.2605 14.5376C75.9492 14.79 75.7061 15.0035 75.531 15.1783L73.6342 24.2057H68.1772L69.7822 16.6052C69.8211 16.3528 69.8697 16.1004 69.9281 15.848C69.9865 15.5762 70.0156 15.3336 70.0156 15.12C70.0156 14.8288 69.9378 14.5958 69.7822 14.4211C69.646 14.227 69.432 14.1299 69.1402 14.1299C68.79 14.1299 68.4496 14.2561 68.1188 14.5085C67.8076 14.7608 67.5644 14.9744 67.3893 15.1491L65.4633 24.2057H59.5103L62.1658 11.6837H66.9224L67.4477 13.5475H67.6227Z" fill="white"/>
<path d="M49.0653 5.71399H61.3507L60.8838 7.92718H54.9308L53.7051 13.5475H58.6952L58.2283 15.7316H53.2382L51.8959 21.9635H57.8489L57.4112 24.2058H45.1257L49.0653 5.71399Z" fill="white"/>
<defs>
<linearGradient id="paint0_linear_13_316" x1="27.8746" y1="8.51779" x2="2.66594" y2="25.6332" gradientUnits="userSpaceOnUse">
<stop stop-color="#8166EC"/>
<stop offset="1" stop-color="#1BADFF"/>
</linearGradient>
<linearGradient id="paint1_linear_13_316" x1="27.8746" y1="8.51779" x2="2.66594" y2="25.6332" gradientUnits="userSpaceOnUse">
<stop stop-color="#8166EC"/>
<stop offset="1" stop-color="#1BADFF"/>
</linearGradient>
</defs>
</svg>
